# xmcd CD database file
#
# Track frame offsets:
#	150
#	13418
#	27383
#	41660
#	61335
#	73350
#	86703
#	108853
#	124648
#	136533
#	149983
#	167318
#	182073
#	206933
#	226865
#	251190
#	268998
#	278795
#	297308
#
# Disc length: 4100 seconds
#
# Revision: 3
# Processed by: cddbd v1.4PL0 Copyright (c) Steve Scherf et al.
# Submitted via: CDex 1.50
#
DISCID=2c100213
DTITLE=Doug Sahm - Doug Sahm and Friends
DYEAR=1992
DGENRE=Blues
TTITLE0=Texas Tornado
TTITLE1=Nitty Gritty
TTITLE2=(Is Anybody Going to) San Antone
TTITLE3=Poison Love
TTITLE4=Wallflower
TTITLE5=Dealer's Blues
TTITLE6=Aint That Loving You
TTITLE7=San Francisco FM Blues
TTITLE8=I Get Off
TTITLE9=Juan Mendoza
TTITLE10=Box Bar Hobo [CD bonus track)
TTITLE11=The Image of Me [CD bonus track)
TTITLE12=Tennessee Blues
TTITLE13=Blue Horizon [CD bonus track)
TTITLE14=Your Friends
TTITLE15=A Song About Myself [CD bonus track)
TTITLE16=Hard Way
TTITLE17=Betty Jo [CD bonus track)
TTITLE18=Chicano
EXTD=LABEL =Rhino\nID =R271032\nUPC =08122-71032-24\nCOPYRIGHT =1992 YEAR: 1992
EXTT0=
EXTT1=
EXTT2=
EXTT3=
EXTT4=
EXTT5=
EXTT6=
EXTT7=
EXTT8=
EXTT9=
EXTT10=
EXTT11=
EXTT12=
EXTT13=
EXTT14=
EXTT15=
EXTT16=
EXTT17=
EXTT18=
PLAYORDER=
